<svg id="svg" version="1.1" xmlns="http://www.w3.org/2000/svg" xmlns:xlink="http://www.w3.org/1999/xlink" width="400" height="400" viewBox="0, 0, 400,400"><g id="svgg"><path id="path0" d="M35.600 199.800 L 35.600 297.600 56.000 297.600 L 76.400 297.600 76.400 290.400 L 76.400 283.200 65.000 283.200 L 53.600 283.200 53.600 200.000 L 53.600 116.800 65.000 116.800 L 76.400 116.800 76.400 109.400 L 76.400 102.000 56.000 102.000 L 35.600 102.000 35.600 199.800 M323.600 109.400 L 323.600 116.800 335.000 116.800 L 346.400 116.800 346.400 200.000 L 346.400 283.200 335.000 283.200 L 323.600 283.200 323.600 290.400 L 323.600 297.600 344.000 297.600 L 364.400 297.600 364.400 199.800 L 364.400 102.000 344.000 102.000 L 323.600 102.000 323.600 109.400 M212.000 128.410 C 212.000 129.130,209.886 129.715,209.084 129.217 C 208.690 128.973,208.217 128.866,208.033 128.979 C 207.849 129.093,205.112 129.287,201.949 129.411 C 198.339 129.552,195.456 129.875,194.200 130.280 C 193.100 130.635,189.950 131.059,187.200 131.223 C 181.098 131.587,175.148 132.570,173.000 133.570 C 172.120 133.979,170.278 134.421,168.907 134.550 C 167.537 134.680,164.927 135.309,163.107 135.949 C 156.522 138.263,153.019 139.627,152.019 140.263 C 135.707 150.656,129.237 163.445,134.900 174.105 C 136.946 177.956,142.666 183.688,145.230 184.456 C 147.971 185.277,147.643 186.338,143.757 189.224 C 139.462 192.413,135.463 207.630,136.366 217.343 C 136.716 221.103,136.431 226.810,135.404 236.600 C 134.313 247.007,134.058 248.497,132.612 252.917 C 130.747 258.618,130.763 263.986,132.654 267.690 C 133.502 269.352,136.784 270.179,141.179 269.837 C 143.061 269.691,146.310 269.525,148.400 269.468 C 151.022 269.397,152.589 269.157,153.456 268.695 C 154.619 268.075,154.977 268.072,158.256 268.653 C 161.232 269.181,162.601 269.211,166.800 268.838 C 169.550 268.594,172.652 268.396,173.694 268.397 C 174.736 268.399,176.399 268.183,177.390 267.918 C 178.812 267.538,179.484 267.542,180.580 267.938 C 181.428 268.245,183.806 268.425,186.684 268.401 C 209.110 268.214,217.536 267.877,219.111 267.102 C 219.792 266.766,221.257 266.788,224.911 267.187 C 230.167 267.761,231.673 267.820,235.400 267.599 C 236.720 267.521,239.600 267.780,241.800 268.175 C 244.000 268.569,246.970 268.940,248.400 268.998 C 249.830 269.056,251.485 269.297,252.077 269.533 C 254.696 270.578,262.593 269.631,265.156 267.966 C 269.496 265.146,269.894 262.080,268.203 244.538 C 267.623 238.513,267.134 230.362,267.032 225.000 C 266.935 219.940,266.760 214.630,266.643 213.200 C 266.525 211.770,266.224 206.730,265.974 202.000 C 265.520 193.389,265.171 191.400,263.602 188.470 C 263.169 187.661,262.348 185.466,261.778 183.591 C 260.672 179.958,259.321 178.448,254.100 175.012 C 252.109 173.702,251.981 173.046,253.530 172.094 C 260.275 167.953,261.926 162.658,259.051 154.391 C 256.834 148.017,249.814 140.652,242.600 137.133 C 241.940 136.811,241.040 136.340,240.600 136.087 C 238.550 134.907,234.235 133.156,232.418 132.766 C 231.312 132.529,230.305 132.170,230.180 131.968 C 230.055 131.765,229.407 131.600,228.739 131.600 C 228.072 131.600,225.787 131.256,223.663 130.835 C 221.538 130.414,218.384 129.947,216.652 129.796 C 214.026 129.568,213.472 129.397,213.306 128.761 C 213.100 127.976,212.000 127.680,212.000 128.410 " stroke="none" fill="#fbfbfb" fill-rule="evenodd"></path><path id="path1" d="M34.277 100.680 C 33.880 100.783,33.385 101.314,33.177 101.860 C 32.602 103.374,32.672 298.482,33.249 299.747 C 33.912 301.202,33.693 301.189,56.491 301.195 L 77.582 301.200 78.213 300.236 C 78.906 299.178,78.956 282.421,78.267 281.732 C 78.085 281.550,73.045 281.310,67.067 281.200 L 56.200 281.000 56.099 200.919 L 55.998 120.837 66.635 120.719 C 80.108 120.568,78.800 121.683,78.800 110.356 C 78.800 102.533,78.749 101.949,78.000 101.200 C 77.237 100.437,37.060 99.959,34.277 100.680 M322.000 101.200 C 321.251 101.949,321.200 102.533,321.200 110.356 C 321.200 121.683,319.892 120.568,333.365 120.719 L 344.002 120.837 343.901 200.919 L 343.800 281.000 333.067 281.200 C 323.031 281.387,322.298 281.450,321.767 282.176 C 320.748 283.572,320.958 299.358,322.010 300.410 C 323.029 301.429,365.465 301.496,366.480 300.480 C 367.499 299.461,367.422 102.222,366.402 101.202 C 365.147 99.947,323.255 99.945,322.000 101.200 M76.800 109.400 L 76.800 117.200 65.400 117.200 L 54.000 117.200 54.000 200.000 L 54.000 282.800 65.400 282.800 L 76.800 282.800 76.800 290.400 L 76.800 298.000 56.000 298.000 L 35.200 298.000 35.200 199.800 L 35.200 101.600 56.000 101.600 L 76.800 101.600 76.800 109.400 M364.800 199.800 L 364.800 298.000 344.000 298.000 L 323.200 298.000 323.200 290.400 L 323.200 282.800 334.600 282.800 L 346.000 282.800 346.000 200.000 L 346.000 117.200 334.600 117.200 L 323.200 117.200 323.200 109.400 L 323.200 101.600 344.000 101.600 L 364.800 101.600 364.800 199.800 M210.800 127.600 C 210.470 127.813,207.995 127.991,205.300 127.994 C 202.605 127.997,200.400 128.135,200.399 128.300 C 200.398 128.899,211.100 128.402,211.618 127.779 C 212.163 127.121,211.698 127.020,210.800 127.600 M193.600 129.087 C 192.610 129.421,189.640 129.830,187.000 129.996 C 181.037 130.371,174.375 131.440,172.000 132.403 C 171.010 132.804,169.288 133.226,168.173 133.339 C 166.123 133.547,160.292 135.359,154.800 137.494 C 146.610 140.678,136.320 149.799,133.149 156.686 C 128.168 167.505,130.883 177.563,140.955 185.600 L 143.190 187.383 141.449 189.192 C 136.541 194.290,133.366 206.969,133.884 219.400 C 134.263 228.482,132.294 247.427,130.371 253.200 C 127.589 261.556,128.858 270.159,133.169 272.153 C 135.538 273.249,149.420 273.258,153.177 272.166 C 155.030 271.627,155.844 271.602,158.567 272.000 C 161.846 272.480,173.810 271.972,177.327 271.205 C 178.204 271.013,179.396 271.031,180.127 271.248 C 181.805 271.743,207.529 271.701,210.606 271.197 C 211.923 270.981,214.278 270.804,215.840 270.802 C 217.402 270.801,219.237 270.606,219.917 270.369 C 220.818 270.055,221.999 270.070,224.276 270.426 C 225.994 270.694,230.280 270.958,233.800 271.013 C 237.569 271.072,241.598 271.377,243.600 271.756 C 245.470 272.110,247.828 272.399,248.840 272.399 C 249.852 272.400,251.237 272.594,251.918 272.831 C 252.778 273.131,254.859 273.148,258.749 272.886 C 269.621 272.154,272.705 267.051,271.251 252.200 C 271.015 249.780,270.625 245.820,270.386 243.400 C 270.147 240.980,269.781 233.870,269.573 227.600 C 268.745 202.604,268.041 193.776,266.608 190.389 C 266.006 188.965,265.158 186.720,264.725 185.400 C 263.116 180.505,262.401 179.391,259.321 176.978 C 255.820 174.235,255.864 174.610,258.734 171.957 C 263.848 167.231,264.119 159.936,259.520 150.800 C 257.890 147.561,250.829 139.600,249.587 139.600 C 249.375 139.600,248.346 139.000,247.301 138.266 C 243.350 135.493,232.632 130.770,230.400 130.819 C 229.373 130.841,232.010 132.062,233.479 132.244 C 234.245 132.339,235.441 132.720,236.136 133.091 C 236.831 133.463,237.497 133.774,237.615 133.783 C 239.680 133.944,248.711 139.749,253.013 143.681 C 259.030 149.181,262.932 160.243,260.814 165.800 C 260.270 167.227,255.891 171.801,254.231 172.676 C 253.137 173.252,253.112 173.318,253.831 173.712 C 254.791 174.238,257.997 176.727,258.800 177.570 C 259.130 177.917,259.895 178.519,260.500 178.909 C 261.105 179.299,261.600 179.938,261.600 180.329 C 261.600 180.720,261.762 181.211,261.960 181.420 C 262.157 181.629,262.690 183.128,263.143 184.750 C 263.596 186.373,264.223 187.993,264.537 188.350 C 265.656 189.626,266.336 193.499,266.758 201.000 C 266.994 205.180,267.306 210.310,267.451 212.400 C 267.597 214.490,267.763 218.360,267.821 221.000 C 268.026 230.344,268.403 238.648,268.794 242.400 C 271.250 265.960,269.691 269.997,257.919 270.568 C 254.768 270.721,252.873 270.642,252.119 270.328 C 251.504 270.071,250.100 269.840,249.000 269.814 C 246.521 269.756,239.786 268.871,238.291 268.407 C 237.649 268.208,236.050 268.228,234.491 268.454 C 232.572 268.734,230.883 268.705,228.600 268.354 C 224.705 267.755,221.034 267.771,214.200 268.417 C 209.998 268.814,187.565 269.053,179.000 268.792 C 178.120 268.765,175.060 268.947,172.200 269.195 C 166.087 269.726,160.348 269.751,157.016 269.261 C 155.136 268.985,154.332 269.044,153.216 269.541 C 152.317 269.940,150.411 270.203,148.000 270.260 C 145.910 270.309,142.626 270.473,140.703 270.625 C 136.464 270.958,132.764 269.882,131.835 268.044 C 130.205 264.816,130.033 257.146,131.508 253.400 C 132.846 250.003,133.535 246.462,134.196 239.600 C 135.441 226.656,135.678 222.536,135.452 217.761 C 134.940 206.960,138.741 191.739,142.632 189.000 C 146.175 186.507,146.650 185.514,144.508 185.078 C 139.925 184.145,132.400 173.553,132.400 168.033 C 132.400 156.903,136.479 149.943,147.365 142.497 C 149.056 141.341,150.943 140.022,151.559 139.567 C 152.602 138.796,153.901 138.283,162.724 135.160 C 164.553 134.512,167.163 133.879,168.524 133.753 C 169.886 133.627,171.720 133.203,172.600 132.811 C 174.166 132.113,175.357 131.859,179.400 131.360 C 180.500 131.224,181.703 130.953,182.074 130.757 C 182.444 130.560,184.627 130.400,186.923 130.400 C 189.720 130.400,191.678 130.192,192.850 129.769 C 193.812 129.422,195.770 128.996,197.200 128.822 L 199.800 128.505 197.600 128.492 C 196.390 128.485,194.590 128.753,193.600 129.087 M222.800 129.825 C 225.330 130.338,227.940 130.742,228.600 130.724 C 229.643 130.695,229.669 130.670,228.800 130.530 C 228.250 130.441,226.248 130.015,224.350 129.584 C 222.453 129.153,220.293 128.821,219.550 128.847 C 218.784 128.873,220.188 129.296,222.800 129.825 " stroke="none" fill="#040404" fill-rule="evenodd"></path><path id="path2" d="M323.367 109.400 C 323.367 113.580,323.426 115.236,323.498 113.079 C 323.571 110.923,323.570 107.503,323.498 105.479 C 323.425 103.456,323.366 105.220,323.367 109.400 M198.105 129.087 C 198.714 129.179,199.614 129.177,200.105 129.082 C 200.597 128.987,200.100 128.911,199.000 128.914 C 197.900 128.917,197.497 128.995,198.105 129.087 M252.800 144.200 C 253.995 145.410,255.063 146.400,255.173 146.400 C 255.283 146.400,254.395 145.410,253.200 144.200 C 252.005 142.990,250.937 142.000,250.827 142.000 C 250.717 142.000,251.605 142.990,252.800 144.200 M137.600 179.000 C 138.346 179.770,139.047 180.400,139.157 180.400 C 139.267 180.400,138.746 179.770,138.000 179.000 C 137.254 178.230,136.553 177.600,136.443 177.600 C 136.333 177.600,136.854 178.230,137.600 179.000 M266.901 209.000 C 266.905 209.880,266.987 210.193,267.083 209.695 C 267.179 209.198,267.175 208.478,267.075 208.095 C 266.975 207.713,266.896 208.120,266.901 209.000 M135.709 226.400 C 135.709 227.390,135.787 227.795,135.882 227.300 C 135.978 226.805,135.978 225.995,135.882 225.500 C 135.787 225.005,135.709 225.410,135.709 226.400 M267.720 234.400 C 267.720 235.610,267.795 236.105,267.887 235.500 C 267.978 234.895,267.978 233.905,267.887 233.300 C 267.795 232.695,267.720 233.190,267.720 234.400 M269.293 259.200 C 269.293 259.970,269.375 260.285,269.476 259.900 C 269.576 259.515,269.576 258.885,269.476 258.500 C 269.375 258.115,269.293 258.430,269.293 259.200 M160.500 269.476 C 160.885 269.576,161.515 269.576,161.900 269.476 C 162.285 269.375,161.970 269.293,161.200 269.293 C 160.430 269.293,160.115 269.375,160.500 269.476 M323.366 290.400 C 323.366 294.470,323.425 296.135,323.498 294.100 C 323.571 292.065,323.571 288.735,323.498 286.700 C 323.425 284.665,323.366 286.330,323.366 290.400 " stroke="none" fill="#9f9f9f" fill-rule="evenodd"></path><path id="path3" d="M35.397 199.800 C 35.397 253.920,35.443 276.001,35.500 248.868 C 35.557 221.735,35.557 177.455,35.500 150.468 C 35.443 123.481,35.397 145.680,35.397 199.800 M53.796 200.000 C 53.796 245.650,53.843 264.325,53.900 241.500 C 53.957 218.675,53.957 181.325,53.900 158.500 C 53.843 135.675,53.796 154.350,53.796 200.000 M346.196 200.000 C 346.196 245.650,346.243 264.325,346.300 241.500 C 346.357 218.675,346.357 181.325,346.300 158.500 C 346.243 135.675,346.196 154.350,346.196 200.000 M217.400 129.200 C 218.060 129.368,219.050 129.505,219.600 129.505 C 220.492 129.505,220.470 129.472,219.400 129.200 C 218.740 129.032,217.750 128.895,217.200 128.895 C 216.308 128.895,216.330 128.928,217.400 129.200 M168.100 133.876 C 168.485 133.976,169.115 133.976,169.500 133.876 C 169.885 133.775,169.570 133.693,168.800 133.693 C 168.030 133.693,167.715 133.775,168.100 133.876 M253.400 144.400 C 254.483 145.500,255.460 146.400,255.570 146.400 C 255.680 146.400,254.883 145.500,253.800 144.400 C 252.717 143.300,251.740 142.400,251.630 142.400 C 251.520 142.400,252.317 143.300,253.400 144.400 M140.678 147.813 C 140.060 148.356,139.714 148.800,139.908 148.800 C 140.102 148.800,140.683 148.350,141.200 147.800 C 142.395 146.528,142.131 146.534,140.678 147.813 M260.893 159.200 C 260.893 159.970,260.975 160.285,261.076 159.900 C 261.176 159.515,261.176 158.885,261.076 158.500 C 260.975 158.115,260.893 158.430,260.893 159.200 M132.493 164.800 C 132.493 165.570,132.575 165.885,132.676 165.500 C 132.776 165.115,132.776 164.485,132.676 164.100 C 132.575 163.715,132.493 164.030,132.493 164.800 M132.509 170.000 C 132.509 170.990,132.587 171.395,132.682 170.900 C 132.778 170.405,132.778 169.595,132.682 169.100 C 132.587 168.605,132.509 169.010,132.509 170.000 M256.177 170.710 C 255.285 171.530,254.205 172.428,253.777 172.706 C 253.350 172.984,253.540 172.954,254.200 172.640 C 255.223 172.153,258.497 169.181,257.978 169.210 C 257.880 169.216,257.070 169.891,256.177 170.710 M138.400 180.200 C 139.817 181.630,141.067 182.800,141.177 182.800 C 141.287 182.800,140.217 181.630,138.800 180.200 C 137.383 178.770,136.133 177.600,136.023 177.600 C 135.913 177.600,136.983 178.770,138.400 180.200 M142.887 184.100 C 143.506 184.705,144.235 185.195,144.506 185.188 C 144.778 185.181,144.640 184.977,144.200 184.733 C 143.760 184.490,143.031 184.000,142.581 183.645 C 142.130 183.290,142.268 183.495,142.887 184.100 M266.109 196.000 C 266.109 196.990,266.187 197.395,266.282 196.900 C 266.378 196.405,266.378 195.595,266.282 195.100 C 266.187 194.605,266.109 195.010,266.109 196.000 M266.501 199.400 C 266.505 200.280,266.587 200.593,266.683 200.095 C 266.779 199.598,266.775 198.878,266.675 198.495 C 266.575 198.113,266.496 198.520,266.501 199.400 M135.731 220.200 C 135.733 221.740,135.805 222.321,135.892 221.491 C 135.979 220.661,135.977 219.401,135.889 218.691 C 135.800 217.981,135.729 218.660,135.731 220.200 M267.728 220.800 C 267.728 222.230,267.801 222.815,267.889 222.100 C 267.978 221.385,267.978 220.215,267.889 219.500 C 267.801 218.785,267.728 219.370,267.728 220.800 M267.701 225.400 C 267.705 226.280,267.787 226.593,267.883 226.095 C 267.979 225.598,267.975 224.878,267.875 224.495 C 267.775 224.113,267.696 224.520,267.701 225.400 M135.324 227.800 C 135.326 229.120,135.401 229.612,135.490 228.893 C 135.579 228.174,135.577 227.094,135.486 226.493 C 135.395 225.892,135.322 226.480,135.324 227.800 M267.701 230.600 C 267.705 231.480,267.787 231.793,267.883 231.295 C 267.979 230.798,267.975 230.078,267.875 229.695 C 267.775 229.313,267.696 229.720,267.701 230.600 M134.114 241.000 C 134.117 242.100,134.195 242.503,134.287 241.895 C 134.379 241.286,134.377 240.386,134.282 239.895 C 134.187 239.403,134.111 239.900,134.114 241.000 M268.501 241.400 C 268.505 242.280,268.587 242.593,268.683 242.095 C 268.779 241.598,268.775 240.878,268.675 240.495 C 268.575 240.113,268.496 240.520,268.501 241.400 M269.320 250.000 C 269.320 251.210,269.395 251.705,269.487 251.100 C 269.578 250.495,269.578 249.505,269.487 248.900 C 269.395 248.295,269.320 248.790,269.320 250.000 M269.714 255.400 C 269.717 256.500,269.795 256.903,269.887 256.295 C 269.979 255.686,269.977 254.786,269.882 254.295 C 269.787 253.803,269.711 254.300,269.714 255.400 M130.514 258.600 C 130.517 259.700,130.595 260.103,130.687 259.495 C 130.779 258.886,130.777 257.986,130.682 257.495 C 130.587 257.003,130.511 257.500,130.514 258.600 M130.493 262.000 C 130.493 262.770,130.575 263.085,130.676 262.700 C 130.776 262.315,130.776 261.685,130.676 261.300 C 130.575 260.915,130.493 261.230,130.493 262.000 M219.452 267.516 C 219.344 267.690,219.918 267.767,220.728 267.687 C 222.942 267.469,223.205 267.267,221.324 267.232 C 220.402 267.214,219.559 267.342,219.452 267.516 M213.491 268.289 C 214.201 268.377,215.461 268.379,216.291 268.292 C 217.121 268.205,216.540 268.133,215.000 268.131 C 213.460 268.129,212.781 268.200,213.491 268.289 M234.500 268.276 C 234.885 268.376,235.515 268.376,235.900 268.276 C 236.285 268.175,235.970 268.093,235.200 268.093 C 234.430 268.093,234.115 268.175,234.500 268.276 M180.400 268.794 C 180.730 269.011,181.435 269.191,181.967 269.194 C 183.251 269.202,182.925 268.975,181.200 268.658 C 180.215 268.477,179.978 268.518,180.400 268.794 M230.700 268.682 C 231.195 268.778,232.005 268.778,232.500 268.682 C 232.995 268.587,232.590 268.509,231.600 268.509 C 230.610 268.509,230.205 268.587,230.700 268.682 M172.100 269.091 C 172.925 269.178,174.275 269.178,175.100 269.091 C 175.925 269.005,175.250 268.934,173.600 268.934 C 171.950 268.934,171.275 269.005,172.100 269.091 M183.700 269.076 C 184.085 269.176,184.715 269.176,185.100 269.076 C 185.485 268.975,185.170 268.893,184.400 268.893 C 183.630 268.893,183.315 268.975,183.700 269.076 M188.905 269.087 C 189.514 269.179,190.414 269.177,190.905 269.082 C 191.397 268.987,190.900 268.911,189.800 268.914 C 188.700 268.917,188.297 268.995,188.905 269.087 M196.517 269.097 C 198.011 269.174,200.351 269.174,201.717 269.096 C 203.082 269.018,201.860 268.955,199.000 268.955 C 196.140 268.956,195.022 269.020,196.517 269.097 M205.507 269.090 C 206.226 269.179,207.306 269.177,207.907 269.086 C 208.508 268.995,207.920 268.922,206.600 268.924 C 205.280 268.926,204.788 269.001,205.507 269.090 M165.700 269.476 C 166.085 269.576,166.715 269.576,167.100 269.476 C 167.485 269.375,167.170 269.293,166.400 269.293 C 165.630 269.293,165.315 269.375,165.700 269.476 M148.105 270.287 C 148.714 270.379,149.614 270.377,150.105 270.282 C 150.597 270.187,150.100 270.111,149.000 270.114 C 147.900 270.117,147.497 270.195,148.105 270.287 M257.300 270.276 C 257.685 270.376,258.315 270.376,258.700 270.276 C 259.085 270.175,258.770 270.093,258.000 270.093 C 257.230 270.093,256.915 270.175,257.300 270.276 M137.507 270.690 C 138.226 270.779,139.306 270.777,139.907 270.686 C 140.508 270.595,139.920 270.522,138.600 270.524 C 137.280 270.526,136.788 270.601,137.507 270.690 " stroke="none" fill="#747474" fill-rule="evenodd"></path><path id="path4" d="M364.597 199.800 C 364.597 253.700,364.643 275.691,364.700 248.668 C 364.757 221.645,364.757 177.545,364.700 150.668 C 364.643 123.791,364.597 145.900,364.597 199.800 " stroke="none" fill="#7c7c7c" fill-rule="evenodd"></path><path id="path5" d="M76.490 109.294 L 76.400 116.787 65.300 116.900 L 54.200 117.013 65.313 117.107 C 74.057 117.180,76.467 117.091,76.622 116.687 C 76.731 116.404,76.765 112.939,76.700 108.987 L 76.580 101.800 76.490 109.294 M329.124 117.099 C 332.273 117.167,337.313 117.167,340.324 117.099 C 343.336 117.031,340.760 116.976,334.600 116.976 C 328.440 116.976,325.976 117.032,329.124 117.099 M136.101 219.000 C 136.105 219.880,136.187 220.193,136.283 219.695 C 136.379 219.198,136.375 218.478,136.275 218.095 C 136.175 217.713,136.096 218.120,136.101 219.000 M134.493 240.400 C 134.493 241.170,134.575 241.485,134.676 241.100 C 134.776 240.715,134.776 240.085,134.676 239.700 C 134.575 239.315,134.493 239.630,134.493 240.400 M268.909 250.000 C 268.909 250.990,268.987 251.395,269.082 250.900 C 269.178 250.405,269.178 249.595,269.082 249.100 C 268.987 248.605,268.909 249.010,268.909 250.000 M148.305 269.883 C 148.802 269.979,149.522 269.975,149.905 269.875 C 150.287 269.775,149.880 269.696,149.000 269.701 C 148.120 269.705,147.807 269.787,148.305 269.883 M65.091 283.097 L 76.382 283.212 76.505 290.407 L 76.628 297.601 76.614 290.300 L 76.600 283.000 65.200 282.990 L 53.800 282.981 65.091 283.097 M329.100 283.099 C 332.235 283.167,337.365 283.167,340.500 283.099 C 343.635 283.032,341.070 282.976,334.800 282.976 C 328.530 282.976,325.965 283.032,329.100 283.099 " stroke="none" fill="#bcbcbc" fill-rule="evenodd"></path><path id="path6" d="" stroke="none" fill="#848484" fill-rule="evenodd"></path><path id="path7" d="M45.700 101.900 C 51.365 101.962,60.635 101.962,66.300 101.900 C 71.965 101.837,67.330 101.786,56.000 101.786 C 44.670 101.786,40.035 101.837,45.700 101.900 M333.700 101.900 C 339.365 101.962,348.635 101.962,354.300 101.900 C 359.965 101.837,355.330 101.786,344.000 101.786 C 332.670 101.786,328.035 101.837,333.700 101.900 M212.629 127.906 C 212.865 128.068,213.175 128.515,213.317 128.900 C 213.498 129.393,213.963 129.581,214.887 129.536 L 216.200 129.472 214.941 129.314 C 214.112 129.210,213.612 128.889,213.478 128.378 C 213.366 127.950,213.033 127.603,212.737 127.606 C 212.385 127.610,212.348 127.714,212.629 127.906 M197.300 129.491 C 198.125 129.578,199.475 129.578,200.300 129.491 C 201.125 129.405,200.450 129.334,198.800 129.334 C 197.150 129.334,196.475 129.405,197.300 129.491 M216.900 129.876 C 217.285 129.976,217.915 129.976,218.300 129.876 C 218.685 129.775,218.370 129.693,217.600 129.693 C 216.830 129.693,216.515 129.775,216.900 129.876 M183.700 131.087 C 184.305 131.178,185.295 131.178,185.900 131.087 C 186.505 130.995,186.010 130.920,184.800 130.920 C 183.590 130.920,183.095 130.995,183.700 131.087 M188.307 131.090 C 189.026 131.179,190.106 131.177,190.707 131.086 C 191.308 130.995,190.720 130.922,189.400 130.924 C 188.080 130.926,187.588 131.001,188.307 131.090 M229.000 131.485 C 229.440 131.591,229.971 131.840,230.180 132.039 C 230.389 132.237,230.738 132.400,230.956 132.400 C 231.175 132.400,231.004 132.136,230.576 131.813 C 230.149 131.490,229.440 131.241,229.000 131.259 L 228.200 131.293 229.000 131.485 M172.006 133.623 C 170.171 134.646,170.984 134.628,173.000 133.600 C 173.863 133.160,174.306 132.810,173.985 132.823 C 173.663 132.836,172.773 133.196,172.006 133.623 M163.800 135.414 C 162.800 135.896,162.766 135.951,163.600 135.748 C 164.733 135.471,166.007 134.821,165.400 134.830 C 165.180 134.833,164.460 135.096,163.800 135.414 M239.600 135.489 C 239.930 135.613,240.678 136.048,241.262 136.457 C 241.846 136.866,242.472 137.200,242.655 137.200 C 242.837 137.200,242.323 136.750,241.514 136.200 C 240.705 135.650,239.808 135.214,239.521 135.232 C 239.168 135.253,239.194 135.336,239.600 135.489 M159.200 137.000 C 158.650 137.314,158.380 137.572,158.600 137.572 C 158.820 137.572,159.450 137.314,160.000 137.000 C 160.550 136.686,160.820 136.428,160.600 136.428 C 160.380 136.428,159.750 136.686,159.200 137.000 M245.069 138.432 C 245.566 139.033,248.000 140.564,248.000 140.276 C 248.000 140.183,247.235 139.602,246.300 138.985 C 245.365 138.368,244.811 138.120,245.069 138.432 M151.944 140.024 L 151.000 140.847 152.200 140.145 C 153.779 139.220,153.803 139.200,153.311 139.200 C 153.079 139.200,152.464 139.571,151.944 140.024 M248.400 140.525 C 248.400 140.594,248.985 141.179,249.700 141.825 L 251.000 143.000 249.825 141.700 C 248.730 140.488,248.400 140.216,248.400 140.525 M146.000 144.152 C 145.010 144.885,143.840 145.913,143.400 146.436 C 142.959 146.962,143.329 146.763,144.226 145.994 C 145.120 145.227,146.380 144.205,147.026 143.722 C 147.672 143.239,148.110 142.839,148.000 142.832 C 147.890 142.825,146.990 143.419,146.000 144.152 M254.025 146.083 C 254.563 146.587,255.421 147.540,255.931 148.200 C 256.442 148.860,256.724 149.130,256.558 148.800 C 255.932 147.554,254.333 145.660,253.702 145.418 C 253.315 145.269,253.447 145.541,254.025 146.083 M132.931 168.200 C 132.933 169.740,133.005 170.321,133.092 169.491 C 133.179 168.661,133.177 167.401,133.089 166.691 C 133.000 165.981,132.929 166.660,132.931 168.200 M256.181 170.100 L 254.600 171.800 256.300 170.219 C 257.881 168.748,258.184 168.400,257.881 168.400 C 257.816 168.400,257.051 169.165,256.181 170.100 M133.200 171.353 C 133.200 171.782,134.390 174.000,134.621 174.000 C 134.731 174.000,134.523 173.415,134.159 172.700 C 133.417 171.240,133.200 170.936,133.200 171.353 M138.600 179.600 C 139.906 180.920,141.065 182.000,141.175 182.000 C 141.285 182.000,140.306 180.920,139.000 179.600 C 137.694 178.280,136.535 177.200,136.425 177.200 C 136.315 177.200,137.294 178.280,138.600 179.600 M145.625 187.369 L 144.250 189.000 145.805 187.513 C 146.660 186.696,147.279 185.962,147.180 185.883 C 147.081 185.803,146.381 186.472,145.625 187.369 M142.522 189.829 L 141.400 190.858 142.700 189.954 C 143.415 189.457,144.000 188.993,144.000 188.925 C 144.000 188.609,143.558 188.880,142.522 189.829 M137.429 201.829 C 137.281 202.415,137.238 202.972,137.332 203.066 C 137.427 203.160,137.624 202.758,137.771 202.171 C 137.919 201.585,137.962 201.028,137.868 200.934 C 137.773 200.840,137.576 201.242,137.429 201.829 M266.120 202.800 C 266.120 204.010,266.195 204.505,266.287 203.900 C 266.378 203.295,266.378 202.305,266.287 201.700 C 266.195 201.095,266.120 201.590,266.120 202.800 M136.893 204.800 C 136.893 205.570,136.975 205.885,137.076 205.500 C 137.176 205.115,137.176 204.485,137.076 204.100 C 136.975 203.715,136.893 204.030,136.893 204.800 M266.554 210.000 C 266.554 212.750,266.618 213.875,266.696 212.500 C 266.774 211.125,266.774 208.875,266.696 207.500 C 266.618 206.125,266.554 207.250,266.554 210.000 M136.131 225.800 C 136.133 227.340,136.205 227.921,136.292 227.091 C 136.379 226.261,136.377 225.001,136.289 224.291 C 136.200 223.581,136.129 224.260,136.131 225.800 M267.353 231.400 C 267.353 234.040,267.418 235.068,267.497 233.684 C 267.575 232.301,267.574 230.141,267.495 228.884 C 267.416 227.628,267.352 228.760,267.353 231.400 M135.301 234.600 C 135.305 235.480,135.387 235.793,135.483 235.295 C 135.579 234.798,135.575 234.078,135.475 233.695 C 135.375 233.313,135.296 233.720,135.301 234.600 M134.901 238.200 C 134.905 239.080,134.987 239.393,135.083 238.895 C 135.179 238.398,135.175 237.678,135.075 237.295 C 134.975 236.913,134.896 237.320,134.901 238.200 M267.693 239.200 C 267.693 239.970,267.775 240.285,267.876 239.900 C 267.976 239.515,267.976 238.885,267.876 238.500 C 267.775 238.115,267.693 238.430,267.693 239.200 M134.493 243.600 C 134.493 244.370,134.575 244.685,134.676 244.300 C 134.776 243.915,134.776 243.285,134.676 242.900 C 134.575 242.515,134.493 242.830,134.493 243.600 M268.509 247.200 C 268.509 248.190,268.587 248.595,268.682 248.100 C 268.778 247.605,268.778 246.795,268.682 246.300 C 268.587 245.805,268.509 246.210,268.509 247.200 M130.928 259.600 C 130.928 261.030,131.001 261.615,131.089 260.900 C 131.178 260.185,131.178 259.015,131.089 258.300 C 131.001 257.585,130.928 258.170,130.928 259.600 M222.100 267.076 C 222.485 267.176,223.115 267.176,223.500 267.076 C 223.885 266.975,223.570 266.893,222.800 266.893 C 222.030 266.893,221.715 266.975,222.100 267.076 M225.500 267.482 C 225.995 267.578,226.805 267.578,227.300 267.482 C 227.795 267.387,227.390 267.309,226.400 267.309 C 225.410 267.309,225.005 267.387,225.500 267.482 M155.000 268.390 C 155.764 268.728,158.314 268.957,157.967 268.656 C 157.875 268.576,156.990 268.404,156.000 268.273 C 154.798 268.114,154.466 268.153,155.000 268.390 M240.100 268.276 C 240.485 268.376,241.115 268.376,241.500 268.276 C 241.885 268.175,241.570 268.093,240.800 268.093 C 240.030 268.093,239.715 268.175,240.100 268.276 M182.700 268.689 C 183.415 268.778,184.585 268.778,185.300 268.689 C 186.015 268.601,185.430 268.528,184.000 268.528 C 182.570 268.528,181.985 268.601,182.700 268.689 M200.300 268.682 C 200.795 268.778,201.605 268.778,202.100 268.682 C 202.595 268.587,202.190 268.509,201.200 268.509 C 200.210 268.509,199.805 268.587,200.300 268.682 M166.105 269.087 C 166.714 269.179,167.614 269.177,168.105 269.082 C 168.597 268.987,168.100 268.911,167.000 268.914 C 165.900 268.917,165.497 268.995,166.105 269.087 M259.505 269.883 C 260.002 269.979,260.722 269.975,261.105 269.875 C 261.487 269.775,261.080 269.696,260.200 269.701 C 259.320 269.705,259.007 269.787,259.505 269.883 M139.300 270.287 C 139.905 270.378,140.895 270.378,141.500 270.287 C 142.105 270.195,141.610 270.120,140.400 270.120 C 139.190 270.120,138.695 270.195,139.300 270.287 M45.700 297.900 C 51.365 297.962,60.635 297.962,66.300 297.900 C 71.965 297.837,67.330 297.786,56.000 297.786 C 44.670 297.786,40.035 297.837,45.700 297.900 M333.700 297.900 C 339.365 297.962,348.635 297.962,354.300 297.900 C 359.965 297.837,355.330 297.786,344.000 297.786 C 332.670 297.786,328.035 297.837,333.700 297.900 " stroke="none" fill="#d1d1d1" fill-rule="evenodd"></path><path id="path8" d="" stroke="none" fill="#c4c4c4" fill-rule="evenodd"></path></g></svg>